<svg width="190" height="49" viewBox="0 0 190 49" fill="none" xmlns="http://www.w3.org/2000/svg">
    <path
        d="M169.455 34.9159L162.986 20.052H167.318L171.736 30.7121L176.843 20.052H181.104L171.033 40.5257H166.701L169.455 34.9159ZM153.702 31.8384C154.084 31.7513 154.453 31.6138 154.799 31.4294C155.133 31.2514 155.445 31.0321 155.724 30.7767C156.004 30.5206 156.245 30.2259 156.441 29.9015C156.647 29.5607 156.806 29.194 156.915 28.8111C157.032 28.3933 157.09 27.961 157.087 27.527C157.091 27.0882 157.033 26.6511 156.915 26.2286C156.806 25.8457 156.647 25.479 156.441 25.1382C156.244 24.8125 156.003 24.5155 155.724 24.2558C155.448 23.9982 155.137 23.7808 154.799 23.6101C154.45 23.4347 154.082 23.3023 153.702 23.2156C153.302 23.1239 152.893 23.0782 152.482 23.0793C152.074 23.0779 151.668 23.1236 151.27 23.2156C150.894 23.3023 150.531 23.4348 150.187 23.6101C149.851 23.7831 149.54 24.0002 149.262 24.2558C148.98 24.514 148.736 24.8112 148.537 25.1382C148.332 25.4782 148.176 25.8453 148.071 26.2286C147.957 26.6519 147.903 27.0887 147.906 27.527C147.903 27.9605 147.958 28.3925 148.071 28.8111C148.176 29.1944 148.332 29.5614 148.537 29.9015C148.734 30.2272 148.979 30.5221 149.262 30.7767C149.544 31.03 149.854 31.2492 150.187 31.4294C150.528 31.6137 150.893 31.7512 151.27 31.8384C151.668 31.9306 152.074 31.9763 152.482 31.9747C152.893 31.976 153.302 31.9302 153.702 31.8384ZM149.334 35.167C148.669 34.9979 148.03 34.7423 147.433 34.4065C146.269 33.752 145.309 32.7888 144.657 31.6232C144.322 31.0205 144.066 30.3767 143.897 29.7079C143.543 28.2707 143.543 26.7691 143.897 25.3319C144.065 24.6651 144.321 24.0235 144.657 23.4237C145.311 22.2622 146.271 21.302 147.433 20.6475C148.03 20.3118 148.669 20.0562 149.334 19.887C150.044 19.7069 150.774 19.6177 151.507 19.6216C151.902 19.6207 152.297 19.6447 152.69 19.6934C153.052 19.7381 153.409 19.81 153.759 19.9086C154.083 20.0007 154.403 20.1133 154.713 20.2457C155.004 20.3694 155.285 20.5157 155.552 20.6833C155.804 20.8411 156.039 21.0237 156.255 21.2285C156.457 21.4199 156.644 21.6261 156.814 21.8454V20.052H160.932V35.002H156.814V33.2086C156.551 33.5389 156.25 33.8374 155.918 34.0981C155.551 34.3867 155.148 34.6277 154.72 34.8154C154.244 35.0245 153.746 35.1786 153.236 35.2746C152.665 35.3825 152.087 35.4353 151.507 35.4324C150.774 35.4364 150.044 35.3471 149.334 35.167ZM134.387 23.8397C134.977 23.8506 135.565 23.783 136.137 23.6389C136.583 23.5262 136.999 23.3182 137.356 23.0291C137.679 22.7598 137.926 22.4113 138.074 22.0176C138.234 21.5716 138.312 21.0999 138.303 20.6259C138.313 20.1542 138.235 19.6848 138.074 19.2414C137.926 18.852 137.679 18.5081 137.356 18.2442C136.997 17.9594 136.581 17.7541 136.137 17.6416C135.565 17.4977 134.977 17.4301 134.387 17.4408H130.342V23.8397H134.387ZM126.081 13.9113H134.789C136.156 13.9113 137.342 14.0787 138.346 14.4135C139.351 14.7483 140.178 15.2122 140.828 15.8052C141.475 16.3932 141.973 17.1256 142.284 17.943C142.61 18.8046 142.772 19.7191 142.765 20.6402C142.775 21.5592 142.612 22.4718 142.284 23.3304C141.968 24.1409 141.47 24.8676 140.828 25.4538C140.178 26.0517 139.351 26.518 138.346 26.8527C137.342 27.1877 136.156 27.3551 134.789 27.3548H130.342V35.002H126.081V13.9113ZM107.787 20.052H111.875V21.8454C112.127 21.4974 112.426 21.1859 112.764 20.92C113.122 20.6395 113.512 20.4035 113.926 20.217C114.383 20.0128 114.862 19.8635 115.354 19.7723C115.9 19.6695 116.455 19.619 117.011 19.6216C117.876 19.6092 118.736 19.7551 119.55 20.052C120.274 20.3189 120.931 20.7427 121.472 21.293C122.016 21.8634 122.428 22.5468 122.677 23.2945C122.965 24.1543 123.105 25.0566 123.093 25.9632V35.002H119.005V27.0248C119.014 26.4417 118.932 25.8607 118.76 25.3031C118.619 24.8429 118.382 24.4176 118.065 24.055C117.76 23.718 117.379 23.4596 116.953 23.3017C116.47 23.1271 115.96 23.042 115.447 23.0507C114.931 23.0424 114.419 23.1275 113.934 23.3017C113.505 23.4583 113.121 23.7168 112.815 24.055C112.498 24.4176 112.26 24.8429 112.119 25.3031C111.947 25.8607 111.865 26.4417 111.875 27.0248V35.002H107.787V20.052ZM97.7259 31.7954C98.1169 31.701 98.4941 31.5614 98.8526 31.3792C99.1931 31.2052 99.5045 30.9802 99.7773 30.7121C100.048 30.4475 100.282 30.1484 100.474 29.8226C100.669 29.4869 100.814 29.1243 100.904 28.7465C101.002 28.3377 101.049 27.9186 101.047 27.4983C101.049 27.0803 101.002 26.6636 100.904 26.2572C100.723 25.5082 100.333 24.8264 99.7773 24.2916C99.501 24.0259 99.1896 23.799 98.8526 23.6173C98.4976 23.4269 98.1186 23.2845 97.7259 23.1941C97.3008 23.0963 96.8645 23.0482 96.4282 23.0506C95.9962 23.0486 95.565 23.0968 95.1441 23.1941C94.754 23.2836 94.3776 23.4261 94.0252 23.6173C93.6907 23.8003 93.3819 24.0271 93.1072 24.2916C92.8369 24.5522 92.6068 24.8521 92.4254 25.1811C92.2407 25.5193 92.0961 25.878 91.9951 26.2501C91.8873 26.6572 91.8343 27.077 91.8377 27.4983C91.8352 27.9195 91.8882 28.3392 91.9951 28.7466C92.0935 29.1218 92.2381 29.4832 92.4254 29.8226C92.6094 30.1502 92.8386 30.4498 93.1072 30.7121C93.3784 30.979 93.6881 31.2039 94.0252 31.3793C94.3802 31.5622 94.7557 31.7019 95.1441 31.7954C95.5642 31.8975 95.9953 31.948 96.4282 31.9461C96.8653 31.9486 97.3016 31.898 97.7259 31.7954ZM94.0183 35.1598C93.2801 34.9881 92.5657 34.7305 91.8882 34.3922C91.2509 34.0744 90.6589 33.6714 90.1302 33.1942C89.6178 32.7306 89.1738 32.1968 88.8111 31.6089C88.4432 31.0103 88.1601 30.3632 87.9719 29.6863C87.5792 28.254 87.5792 26.7426 87.9719 25.3103C88.1592 24.6354 88.4424 23.9905 88.8111 23.395C89.1764 22.8089 89.6203 22.2755 90.1302 21.8096C90.658 21.3286 91.2492 20.9231 91.8882 20.6044C92.5657 20.2663 93.2801 20.0087 94.0183 19.8369C95.6138 19.4733 97.2708 19.4733 98.8663 19.8369C99.6003 20.0071 100.31 20.2649 100.983 20.6044C101.618 20.9278 102.209 21.3329 102.74 21.8096C103.257 22.2738 103.709 22.8072 104.081 23.395C104.454 23.9893 104.739 24.6345 104.927 25.3103C105.32 26.7426 105.32 28.254 104.927 29.6863C104.738 30.3642 104.453 31.0116 104.081 31.6089C103.712 32.1985 103.26 32.7323 102.74 33.1942C102.208 33.667 101.617 34.0697 100.983 34.3922C100.313 34.7312 99.6045 34.9889 98.874 35.1598C97.276 35.5233 95.6163 35.5233 94.0183 35.1598ZM78.0648 31.7954C78.4551 31.701 78.833 31.5614 79.1909 31.3792C79.5314 31.2052 79.8434 30.9802 80.1162 30.7121C80.3862 30.4475 80.6202 30.1484 80.8119 29.8226C81.0075 29.487 81.1525 29.1244 81.2422 28.7465C81.3398 28.3377 81.388 27.9186 81.3857 27.4983C81.3882 27.0803 81.3401 26.6636 81.2422 26.2572C81.0614 25.5082 80.6708 24.8264 80.1162 24.2916C79.8398 24.0259 79.5285 23.799 79.1909 23.6173C78.836 23.4269 78.4573 23.2845 78.0648 23.1941C77.6391 23.0963 77.2034 23.0482 76.7666 23.0506C76.3345 23.0487 75.9037 23.0968 75.4828 23.1941C75.0923 23.2836 74.7158 23.4261 74.3638 23.6173C74.0292 23.8003 73.7205 24.0271 73.4457 24.2916C73.1752 24.5522 72.9454 24.8521 72.7643 25.1811C72.5795 25.5194 72.4351 25.8781 72.334 26.2501C72.2256 26.6572 72.1726 27.077 72.1762 27.4983C72.1738 27.9194 72.2268 28.3391 72.334 28.7465C72.4323 29.1217 72.5769 29.4831 72.7643 29.8226C72.9477 30.1502 73.1772 30.4498 73.4457 30.7121C73.7169 30.979 74.0263 31.2038 74.3638 31.3792C74.7188 31.5621 75.0945 31.7019 75.4828 31.7954C75.903 31.8975 76.3341 31.948 76.7666 31.946C77.2039 31.9485 77.6398 31.898 78.0648 31.7954ZM74.3566 35.1598C73.619 34.9881 72.904 34.7306 72.2264 34.3923C71.5891 34.0745 70.998 33.6714 70.4692 33.1943C69.9568 32.7306 69.5125 32.1968 69.1495 31.6089C68.7814 31.0104 68.499 30.3633 68.3102 29.6864C67.9182 28.2541 67.9182 26.7427 68.3102 25.3104C68.4982 24.6355 68.7807 23.9906 69.1495 23.395C69.5152 22.8089 69.9592 22.2756 70.4692 21.8097C70.9965 21.3287 71.5879 20.9232 72.2264 20.6045C72.9041 20.2664 73.619 20.0088 74.3566 19.8369C75.9524 19.4734 77.6095 19.4734 79.2052 19.8369C79.9387 20.0072 80.6491 20.2649 81.3212 20.6045C81.957 20.9278 82.5477 21.333 83.0784 21.8097C83.5964 22.2738 84.0477 22.8073 84.4197 23.395C84.7926 23.9893 85.0777 24.6345 85.266 25.3104C85.6578 26.7427 85.6578 28.2541 85.266 29.6864C85.0769 30.3643 84.7919 31.0116 84.4197 31.6089C84.0504 32.1985 83.5987 32.7325 83.0784 33.1943C82.5463 33.6672 81.9558 34.0699 81.3212 34.3923C80.6513 34.7313 79.9434 34.9889 79.2124 35.1598C77.6143 35.5233 75.9549 35.5233 74.3566 35.1598ZM42.0889 13.9113H46.3924L53.7513 25.1597L61.139 13.9113H65.4425V35.002H61.182V20.5399L55.0711 29.8656H52.4603L46.3494 20.5399V35.002H42.0889V13.9113Z"
        fill="black" />
    <path
        d="M32.2625 17.6874C33.1137 17.6874 33.9457 17.435 34.6534 16.962C35.3611 16.489 35.9127 15.8168 36.2384 15.0303C36.5641 14.2438 36.6493 13.3784 36.4833 12.5434C36.3173 11.7085 35.9074 10.9415 35.3055 10.3396C34.7037 9.73768 33.9369 9.32775 33.1021 9.16159C32.2673 8.99555 31.402 9.08082 30.6156 9.40655C29.8293 9.73237 29.1571 10.284 28.6843 10.9918C28.2114 11.6997 27.959 12.5319 27.959 13.3831C27.959 13.9484 28.0703 14.5082 28.2865 15.0303C28.5028 15.5526 28.8197 16.027 29.2194 16.4268C29.619 16.8264 30.0934 17.1435 30.6155 17.3598C31.1377 17.5761 31.6974 17.6874 32.2625 17.6874ZM19.0669 37.0724C16.9923 37.0725 14.9641 36.4572 13.2391 35.3043C11.5141 34.1515 10.1695 32.5129 9.37566 30.5959C8.5817 28.6788 8.37395 26.5692 8.77872 24.5342C9.18344 22.499 10.1825 20.6296 11.6495 19.1623C13.1166 17.695 14.9857 16.6958 17.0205 16.291C19.0553 15.8861 21.1645 16.094 23.0812 16.8881C24.9979 17.6821 26.6362 19.0268 27.7888 20.7522C28.9415 22.4775 29.5566 24.5059 29.5566 26.581C29.5567 27.9588 29.2854 29.323 28.7582 30.5959C28.2311 31.8688 27.4584 33.0255 26.4844 33.9997C25.5103 34.974 24.3539 35.7467 23.0812 36.274C21.8086 36.8012 20.4444 37.0725 19.0669 37.0724Z"
        fill="#7715F5" />
</svg>
