<svg width="33" height="33" viewBox="0 0 33 33" fill="none" xmlns="http://www.w3.org/2000/svg">
<g clip-path="url(#clip0_1068_14863)">
<path d="M16.5625 32.8125C25.3991 32.8125 32.5625 25.6491 32.5625 16.8125C32.5625 7.97594 25.3991 0.8125 16.5625 0.8125C7.72594 0.8125 0.5625 7.97594 0.5625 16.8125C0.5625 25.6491 7.72594 32.8125 16.5625 32.8125Z" fill="#F0F0F0"/>
<path d="M9.60596 22.3779L10.9973 31.8177C12.7305 32.4609 14.6053 32.8127 16.5625 32.8127C23.4418 32.8127 29.3066 28.4707 31.5672 22.3779H9.60596Z" fill="black"/>
<path d="M9.60596 11.2473L10.9973 1.80756C12.7305 1.16437 14.6053 0.8125 16.5625 0.8125C23.4418 0.8125 29.3066 5.1545 31.5672 11.2473H9.60596Z" fill="#6DA544"/>
<path d="M0.5625 16.8124C0.5625 23.6919 4.90456 29.5566 10.9973 31.8172V1.80762C4.90456 4.0683 0.5625 9.93299 0.5625 16.8124Z" fill="#A2001D"/>
</g>
<defs>
<clipPath id="clip0_1068_14863">
<rect width="32" height="32" fill="white" transform="translate(0.5625 0.8125)"/>
</clipPath>
</defs>
</svg>
