<svg width="33" height="33" viewBox="0 0 33 33" fill="none" xmlns="http://www.w3.org/2000/svg">
<g clip-path="url(#clip0_1068_12981)">
<path d="M32.5625 16.8125C32.5625 25.649 25.399 32.8125 16.5625 32.8125C7.726 32.8125 0.5625 25.649 0.5625 16.8125C0.5625 16.8162 16.5625 0.814312 16.5625 0.8125C25.399 0.8125 32.5625 7.976 32.5625 16.8125Z" fill="#0052B4"/>
<path d="M16.5198 16.8123H16.5626C16.5626 16.7978 16.5626 16.784 16.5626 16.7695C16.5483 16.7838 16.5341 16.7981 16.5198 16.8123Z" fill="#F0F0F0"/>
<path d="M16.5625 9.16031C16.5625 6.345 16.5625 4.50019 16.5625 0.8125H16.5598C7.7245 0.813938 0.5625 7.97675 0.5625 16.8124H8.91031V12.1117L13.6111 16.8124H16.5197C16.5341 16.7982 16.5483 16.7839 16.5626 16.7696C16.5626 15.6917 16.5626 14.7299 16.5626 13.8611L11.8617 9.16031H16.5625Z" fill="#F0F0F0"/>
<path d="M8.65716 2.90039C6.15473 4.32533 4.07435 6.4057 2.64941 8.90814V16.8135H6.82335V7.07439V7.07433H16.5625C16.5625 5.75789 16.5625 4.50377 16.5625 2.90039H8.65716Z" fill="#D80027"/>
<path d="M16.5625 14.8457L10.878 9.16116H8.9104C8.9104 9.1611 8.9104 9.16116 8.9104 9.16116L16.5625 16.8132H16.5625C16.5625 16.8132 16.5625 15.4567 16.5625 14.8457Z" fill="#D80027"/>
<path d="M10.2122 19.5957L11.0903 21.4318L13.0733 20.9735L12.1853 22.8049L13.7799 24.0695L11.7945 24.517L11.8 26.5522L10.2122 25.2789L8.62447 26.5522L8.63003 24.517L6.64453 24.0695L8.23922 22.8049L7.35109 20.9735L9.33416 21.4318L10.2122 19.5957Z" fill="#F0F0F0"/>
<path d="M24.5177 23.0732L24.9568 23.9913L25.9483 23.7621L25.5042 24.6778L26.3016 25.3101L25.3088 25.5339L25.3116 26.5515L24.5177 25.9148L23.7238 26.5515L23.7266 25.5339L22.7339 25.3101L23.5312 24.6778L23.0872 23.7621L24.0786 23.9913L24.5177 23.0732Z" fill="#F0F0F0"/>
<path d="M20.4333 13.334L20.8723 14.2521L21.8638 14.0229L21.4198 14.9385L22.2171 15.5709L21.2244 15.7946L21.2271 16.8122L20.4333 16.1755L19.6394 16.8122L19.6421 15.7946L18.6494 15.5709L19.4467 14.9385L19.0027 14.0229L19.9942 14.2521L20.4333 13.334Z" fill="#F0F0F0"/>
<path d="M24.5177 7.76953L24.9568 8.68766L25.9483 8.45847L25.5043 9.37416L26.3015 10.0064L25.3088 10.2302L25.3116 11.2478L24.5177 10.6112L23.7238 11.2478L23.7266 10.2302L22.7339 10.0064L23.5311 9.37416L23.0872 8.45847L24.0786 8.68766L24.5177 7.76953Z" fill="#F0F0F0"/>
<path d="M28.0856 11.9434L28.5246 12.8615L29.5161 12.6322L29.0721 13.5479L29.8694 14.1802L28.8767 14.404L28.8794 15.4216L28.0856 14.785L27.2918 15.4216L27.2944 14.404L26.3018 14.1802L27.0991 13.5479L26.6551 12.6322L27.6465 12.8615L28.0856 11.9434Z" fill="#F0F0F0"/>
<path d="M25.5345 16.8125L25.8798 17.8754H26.9974L26.0932 18.5323L26.4387 19.5951L25.5345 18.9382L24.6303 19.5951L24.9757 18.5323L24.0715 17.8754H25.1891L25.5345 16.8125Z" fill="#F0F0F0"/>
</g>
<defs>
<clipPath id="clip0_1068_12981">
<rect width="32" height="32" fill="white" transform="translate(0.5625 0.8125)"/>
</clipPath>
</defs>
</svg>
