<svg width="33" height="33" viewBox="0 0 33 33" fill="none" xmlns="http://www.w3.org/2000/svg">
<g clip-path="url(#clip0_1068_13267)">
<path d="M16.5625 32.8125C25.3991 32.8125 32.5625 25.6491 32.5625 16.8125C32.5625 7.97594 25.3991 0.8125 16.5625 0.8125C7.72594 0.8125 0.5625 7.97594 0.5625 16.8125C0.5625 25.6491 7.72594 32.8125 16.5625 32.8125Z" fill="#F0F0F0"/>
<path d="M32.5625 16.8128C32.5625 10.4694 28.871 4.98839 23.519 2.40039V31.2251C28.871 28.6371 32.5625 23.1561 32.5625 16.8128Z" fill="#D80027"/>
<path d="M0.5625 16.8128C0.5625 23.1561 4.25406 28.6371 9.606 31.2251V2.40039C4.25406 4.98839 0.5625 10.4694 0.5625 16.8128Z" fill="#D80027"/>
<path d="M19.3451 18.8999L22.1277 17.5085L20.7364 16.8129V15.4216L17.9538 16.8129L19.3451 14.0303H17.9538L16.5625 11.9434L15.1712 14.0303H13.7799L15.1712 16.8129L12.3886 15.4216V16.8129L10.9973 17.5085L13.7799 18.8999L13.0843 20.2912H15.8669V22.3781H17.2581V20.2912H20.0408L19.3451 18.8999Z" fill="#D80027"/>
</g>
<defs>
<clipPath id="clip0_1068_13267">
<rect width="32" height="32" fill="white" transform="translate(0.5625 0.8125)"/>
</clipPath>
</defs>
</svg>
