<svg width="33" height="33" viewBox="0 0 33 33" fill="none" xmlns="http://www.w3.org/2000/svg">
<g clip-path="url(#clip0_1068_13360)">
<path d="M16.5625 32.8125C25.3991 32.8125 32.5625 25.6491 32.5625 16.8125C32.5625 7.97594 25.3991 0.8125 16.5625 0.8125C7.72594 0.8125 0.5625 7.97594 0.5625 16.8125C0.5625 25.6491 7.72594 32.8125 16.5625 32.8125Z" fill="#D80027"/>
<path d="M9.31875 10.5498L10.7 14.7998H15.1687L11.5562 17.4311L12.9375 21.6811L9.31875 19.0561L5.7 21.6811L7.0875 17.4311L3.46875 14.7998H7.9375L9.31875 10.5498Z" fill="#FFDA44"/>
<path d="M19.5312 25.5941L18.475 24.2941L16.9125 24.9004L17.8187 23.4941L16.7625 22.1879L18.3812 22.6191L19.2937 21.2129L19.3812 22.8879L21.0062 23.3191L19.4375 23.9191L19.5312 25.5941Z" fill="#FFDA44"/>
<path d="M21.6312 21.7816L22.1312 20.1816L20.7625 19.2129L22.4375 19.1879L22.9312 17.5879L23.475 19.1754L25.15 19.1566L23.8062 20.1566L24.3437 21.7441L22.975 20.7754L21.6312 21.7816Z" fill="#FFDA44"/>
<path d="M24.4625 12.5564L23.725 14.0627L24.925 15.2314L23.2688 14.9939L22.5313 16.4939L22.2438 14.8439L20.5813 14.6064L22.0688 13.8252L21.7813 12.1689L22.9813 13.3377L24.4625 12.5564Z" fill="#FFDA44"/>
<path d="M19.5749 7.99414L19.4499 9.66289L21.0062 10.2941L19.3749 10.6941L19.2562 12.3691L18.3749 10.9441L16.7437 11.3441L17.8249 10.0629L16.9374 8.64414L18.4937 9.27539L19.5749 7.99414Z" fill="#FFDA44"/>
</g>
<defs>
<clipPath id="clip0_1068_13360">
<rect width="32" height="32" fill="white" transform="translate(0.5625 0.8125)"/>
</clipPath>
</defs>
</svg>
