<svg width="33" height="33" viewBox="0 0 33 33" fill="none" xmlns="http://www.w3.org/2000/svg">
<g clip-path="url(#clip0_1068_13631)">
<path d="M16.5625 32.8125C25.3991 32.8125 32.5625 25.6491 32.5625 16.8125C32.5625 7.97594 25.3991 0.8125 16.5625 0.8125C7.72594 0.8125 0.5625 7.97594 0.5625 16.8125C0.5625 25.6491 7.72594 32.8125 16.5625 32.8125Z" fill="#F0F0F0"/>
<path d="M32.5625 16.8124C32.5625 9.93299 28.2205 4.0683 22.1277 1.80762V31.8173C28.2205 29.5566 32.5625 23.6919 32.5625 16.8124Z" fill="#D80027"/>
<path d="M0.5625 16.8124C0.5625 23.6919 4.90456 29.5566 10.9973 31.8172V1.80762C4.90456 4.0683 0.5625 9.93299 0.5625 16.8124Z" fill="#0052B4"/>
</g>
<defs>
<clipPath id="clip0_1068_13631">
<rect width="32" height="32" fill="white" transform="translate(0.5625 0.8125)"/>
</clipPath>
</defs>
</svg>
