<svg width="33" height="33" viewBox="0 0 33 33" fill="none" xmlns="http://www.w3.org/2000/svg">
<g clip-path="url(#clip0_1068_13785)">
<path d="M16.5625 32.8125C25.3991 32.8125 32.5625 25.6491 32.5625 16.8125C32.5625 7.97594 25.3991 0.8125 16.5625 0.8125C7.72594 0.8125 0.5625 7.97594 0.5625 16.8125C0.5625 25.6491 7.72594 32.8125 16.5625 32.8125Z" fill="#D80027"/>
<path d="M18.2142 12.9176C17.8506 14.4301 17.2045 14.1416 16.8875 15.4606C15.0198 15.0116 13.8695 13.1335 14.3186 11.2656C14.7675 9.39796 16.6458 8.24771 18.5135 8.69677C17.8793 11.3347 18.5395 11.565 18.2142 12.9176Z" fill="#F0F0F0"/>
<path d="M13.3676 14.0381C14.6937 14.8512 14.2197 15.3767 15.376 16.0858C14.3718 17.7234 12.2302 18.2368 10.5926 17.2327C8.95505 16.2285 8.44148 14.0868 9.44573 12.4492C11.7586 13.8675 12.1814 13.3108 13.3676 14.0381Z" fill="#F0F0F0"/>
<path d="M12.936 18.9942C14.1192 17.9843 14.4723 18.5974 15.5041 17.7168C16.7513 19.1779 16.5778 21.3734 15.1168 22.6205C13.6556 23.8677 11.4601 23.694 10.2131 22.2331C12.2765 20.4717 11.8777 19.8974 12.936 18.9942Z" fill="#F0F0F0"/>
<path d="M17.5157 20.9364C16.9207 19.4991 17.6129 19.3526 17.0942 18.0992C18.8692 17.3647 20.9037 18.2081 21.6383 19.983C22.3729 21.7579 21.5294 23.7924 19.7544 24.527C18.7171 22.0202 18.0478 22.222 17.5157 20.9364Z" fill="#F0F0F0"/>
<path d="M20.7779 17.1805C19.227 17.3022 19.3015 16.5985 17.9493 16.7046C17.7991 14.7896 19.23 13.1152 21.145 12.9649C23.06 12.815 24.7344 14.2457 24.8845 16.1608C22.1797 16.3729 22.1648 17.0718 20.7779 17.1805Z" fill="#F0F0F0"/>
</g>
<defs>
<clipPath id="clip0_1068_13785">
<rect width="32" height="32" fill="white" transform="translate(0.5625 0.8125)"/>
</clipPath>
</defs>
</svg>
