<svg width="33" height="33" viewBox="0 0 33 33" fill="none" xmlns="http://www.w3.org/2000/svg">
<g clip-path="url(#clip0_1068_13805)">
<path d="M16.5625 32.8105C25.3991 32.8105 32.5625 25.6471 32.5625 16.8105C32.5625 7.97399 25.3991 0.810547 16.5625 0.810547C7.72594 0.810547 0.5625 7.97399 0.5625 16.8105C0.5625 25.6471 7.72594 32.8105 16.5625 32.8105Z" fill="#F0F0F0"/>
<path d="M16.5625 0.810547C10.2191 0.810547 4.73815 4.50211 2.15015 9.85405H30.9748C28.3869 4.50211 22.9058 0.810547 16.5625 0.810547Z" fill="#FF9811"/>
<path d="M16.5625 32.8111C22.9058 32.8111 28.3869 29.1195 30.9749 23.7676H2.15015C4.73815 29.1195 10.2191 32.8111 16.5625 32.8111Z" fill="#6DA544"/>
<path d="M16.5625 22.3765C19.6361 22.3765 22.1277 19.8848 22.1277 16.8113C22.1277 13.7377 19.6361 11.2461 16.5625 11.2461C13.4889 11.2461 10.9973 13.7377 10.9973 16.8113C10.9973 19.8848 13.4889 22.3765 16.5625 22.3765Z" fill="#0052B4"/>
<path d="M16.5625 20.2885C18.4835 20.2885 20.0407 18.7313 20.0407 16.8103C20.0407 14.8893 18.4835 13.332 16.5625 13.332C14.6415 13.332 13.0842 14.8893 13.0842 16.8103C13.0842 18.7313 14.6415 20.2885 16.5625 20.2885Z" fill="#F0F0F0"/>
<path d="M16.5625 12.5186L17.6356 14.9522L20.2796 14.6646L18.7086 16.8107L20.2796 18.9567L17.6356 18.6692L16.5625 21.1028L15.4895 18.6692L12.8455 18.9567L14.4165 16.8107L12.8455 14.6646L15.4895 14.9522L16.5625 12.5186Z" fill="#0052B4"/>
</g>
<defs>
<clipPath id="clip0_1068_13805">
<rect width="32" height="32" fill="white" transform="translate(0.5625 0.811523)"/>
</clipPath>
</defs>
</svg>
