<svg width="33" height="33" viewBox="0 0 33 33" fill="none" xmlns="http://www.w3.org/2000/svg">
<g clip-path="url(#clip0_1068_14008)">
<path d="M16.5625 32.8125C25.3991 32.8125 32.5625 25.6491 32.5625 16.8125C32.5625 7.97594 25.3991 0.8125 16.5625 0.8125C7.72594 0.8125 0.5625 7.97594 0.5625 16.8125C0.5625 25.6491 7.72594 32.8125 16.5625 32.8125Z" fill="#F0F0F0"/>
<path d="M15.8672 16.8126H32.5628C32.5628 15.3684 32.3703 13.9695 32.0116 12.6387H15.8672V16.8126Z" fill="#D80027"/>
<path d="M15.8672 8.46495H30.2144C29.235 6.8667 27.9828 5.45402 26.5226 4.29102H15.8672V8.46495Z" fill="#D80027"/>
<path d="M16.5628 32.8122C20.3284 32.8122 23.7895 31.5107 26.5227 29.334H6.60303C9.33621 31.5107 12.7973 32.8122 16.5628 32.8122Z" fill="#D80027"/>
<path d="M2.91145 25.1603H30.2147C31.001 23.8773 31.6108 22.4747 32.0119 20.9863H1.11426C1.51532 22.4747 2.12513 23.8773 2.91145 25.1603Z" fill="#D80027"/>
<path d="M16.5625 16.8125C16.5625 7.976 16.5625 6.93425 16.5625 0.8125C7.726 0.8125 0.5625 7.976 0.5625 16.8125H16.5625Z" fill="#0052B4"/>
<path d="M11.2023 14.5076C9.01722 14.5076 7.24585 12.7362 7.24585 10.5511C7.24585 8.36608 9.01728 6.59464 11.2023 6.59464C11.8837 6.59464 12.5247 6.76695 13.0844 7.0702C12.2064 6.21164 11.0057 5.68164 9.6806 5.68164C6.99129 5.68164 4.81104 7.86183 4.81104 10.5512C4.81104 13.2406 6.99129 15.4208 9.6806 15.4208C11.0057 15.4208 12.2064 14.8908 13.0844 14.0322C12.5247 14.3353 11.8837 14.5076 11.2023 14.5076Z" fill="#FFDA44"/>
<path d="M12.3174 7.76953L13.0198 9.23841L14.6061 8.87191L13.8958 10.3368L15.1715 11.3485L13.5831 11.7066L13.5876 13.3348L12.3174 12.3162L11.0471 13.3348L11.0515 11.7066L9.46313 11.3485L10.7389 10.3368L10.0284 8.87191L11.6149 9.23841L12.3174 7.76953Z" fill="#FFDA44"/>
</g>
<defs>
<clipPath id="clip0_1068_14008">
<rect width="32" height="32" fill="white" transform="translate(0.5625 0.8125)"/>
</clipPath>
</defs>
</svg>
