<svg width="33" height="33" viewBox="0 0 33 33" fill="none" xmlns="http://www.w3.org/2000/svg">
<g clip-path="url(#clip0_1068_14219)">
<path d="M16.562 32.8125C25.3986 32.8125 32.562 25.6491 32.562 16.8125C32.562 7.97594 25.3986 0.8125 16.562 0.8125C7.72546 0.8125 0.562012 7.97594 0.562012 16.8125C0.562012 25.6491 7.72546 32.8125 16.562 32.8125Z" fill="#F0F0F0"/>
<path d="M0.562256 16.8114C0.562256 23.6909 4.90426 29.5555 10.9971 31.8163V1.80664C4.90426 4.06727 0.562256 9.93202 0.562256 16.8114Z" fill="#6DA544"/>
<path d="M32.5623 16.8114C32.5623 9.93202 28.2203 4.06727 22.1274 1.80664V31.8163C28.2203 29.5555 32.5623 23.6909 32.5623 16.8114Z" fill="#6DA544"/>
</g>
<defs>
<clipPath id="clip0_1068_14219">
<rect width="32" height="32" fill="white" transform="translate(0.561768 0.8125)"/>
</clipPath>
</defs>
</svg>
