<svg width="33" height="33" viewBox="0 0 33 33" fill="none" xmlns="http://www.w3.org/2000/svg">
<g clip-path="url(#clip0_1068_14339)">
<path d="M16.25 32.8125C25.0866 32.8125 32.25 25.6491 32.25 16.8125C32.25 7.97594 25.0866 0.8125 16.25 0.8125C7.41344 0.8125 0.25 7.97594 0.25 16.8125C0.25 25.6491 7.41344 32.8125 16.25 32.8125Z" fill="#F0F0F0"/>
<path d="M16.25 0.8125V16.8125L4.93628 28.1262C7.83172 31.0216 11.8317 32.8125 16.25 32.8125C25.0865 32.8125 32.25 25.649 32.25 16.8125C32.25 7.976 16.25 0.8125 16.25 0.8125Z" fill="#D80027"/>
<path d="M16.25 0.8125C11.8317 0.8125 7.83172 2.60338 4.93628 5.49875C8.8619 9.42438 10.2555 10.818 16.25 16.8125H32.25C32.25 7.976 25.0865 0.8125 16.25 0.8125Z" fill="#0052B4"/>
<path d="M11.2055 16.8109L9.25149 15.8918L10.2921 13.9993L8.17018 14.4053L7.9013 12.2617L6.4233 13.8382L4.94536 12.2617L4.67643 14.4053L2.55461 13.9993L3.59518 15.8918L1.64111 16.8109L3.59518 17.73L2.55461 19.6225L4.67661 19.2166L4.9453 21.3601L6.4233 19.7836L7.9013 21.3601L8.17018 19.2166L10.2919 19.6225L9.25143 17.7301L11.2055 16.8109Z" fill="#FFDA44"/>
<path d="M4.51687 7.07227L5.16712 7.9812L6.23243 7.64377L5.5688 8.54302L6.21905 9.45195L5.15868 9.09877L4.49512 9.99795L4.50343 8.88045L3.44312 8.5272L4.50862 8.18977L4.51687 7.07227Z" fill="#FFDA44"/>
<path d="M4.51687 23.625L5.16712 24.5339L6.23243 24.1964L5.5688 25.0957L6.21905 26.0047L5.15868 25.6515L4.49512 26.5507L4.50343 25.4332L3.44312 25.0799L4.50862 24.7425L4.51687 23.625Z" fill="#FFDA44"/>
<path d="M13.7915 15.3486L13.1413 16.2576L12.0759 15.92L12.7396 16.8193L12.0893 17.7283L13.1497 17.3751L13.8133 18.2743L13.8049 17.1568L14.8652 16.8036L13.7998 16.4661L13.7915 15.3486Z" fill="#FFDA44"/>
</g>
<defs>
<clipPath id="clip0_1068_14339">
<rect width="32" height="32" fill="white" transform="translate(0.25 0.8125)"/>
</clipPath>
</defs>
</svg>
