<svg width="33" height="33" viewBox="0 0 33 33" fill="none" xmlns="http://www.w3.org/2000/svg">
<g clip-path="url(#clip0_1068_14513)">
<path d="M16.5625 32.8125C25.3991 32.8125 32.5625 25.6491 32.5625 16.8125C32.5625 7.97594 25.3991 0.8125 16.5625 0.8125C7.72594 0.8125 0.5625 7.97594 0.5625 16.8125C0.5625 25.6491 7.72594 32.8125 16.5625 32.8125Z" fill="#F0F0F0"/>
<path d="M0.5625 16.8126C0.5625 7.976 7.726 0.8125 16.5625 0.8125C25.399 0.8125 32.5625 7.976 32.5625 16.8126" fill="#D80027"/>
<path d="M10.3014 9.16052C10.3014 6.82939 11.9397 4.88202 14.1274 4.4042C13.7912 4.33083 13.4424 4.29102 13.0839 4.29102C10.3945 4.29102 8.21436 6.47114 8.21436 9.16058C8.21436 11.85 10.3945 14.0301 13.0839 14.0301C13.4422 14.0301 13.7911 13.9903 14.1274 13.9169C11.9397 13.4391 10.3014 11.4917 10.3014 9.16052Z" fill="#F0F0F0"/>
<path d="M16.5622 4.63867L16.9076 5.70148H18.0252L17.121 6.35842L17.4664 7.42123L16.5622 6.76442L15.6581 7.42123L16.0035 6.35842L15.0994 5.70148H16.2169L16.5622 4.63867Z" fill="#F0F0F0"/>
<path d="M13.8514 6.72559L14.1967 7.78846H15.3143L14.4102 8.44534L14.7556 9.50815L13.8514 8.85134L12.9472 9.50815L13.2926 8.44534L12.3884 7.78846H13.506L13.8514 6.72559Z" fill="#F0F0F0"/>
<path d="M19.2732 6.72559L19.6186 7.78846H20.7361L19.8319 8.44534L20.1774 9.50815L19.2732 8.85134L18.3691 9.50815L18.7144 8.44534L17.8103 7.78846H18.9278L19.2732 6.72559Z" fill="#F0F0F0"/>
<path d="M18.2297 9.85547L18.5751 10.9183H19.6926L18.7885 11.5752L19.1338 12.638L18.2297 11.9812L17.3256 12.638L17.671 11.5752L16.7668 10.9183H17.8843L18.2297 9.85547Z" fill="#F0F0F0"/>
<path d="M14.8948 9.85547L15.2401 10.9183H16.3578L15.4536 11.5752L15.799 12.638L14.8948 11.9812L13.9906 12.638L14.336 11.5752L13.4319 10.9183H14.5494L14.8948 9.85547Z" fill="#F0F0F0"/>
</g>
<defs>
<clipPath id="clip0_1068_14513">
<rect width="32" height="32" fill="white" transform="translate(0.5625 0.8125)"/>
</clipPath>
</defs>
</svg>
