<svg width="33" height="33" viewBox="0 0 33 33" fill="none" xmlns="http://www.w3.org/2000/svg">
<g clip-path="url(#clip0_1068_14868)">
<path d="M16.5625 32.8125C25.3991 32.8125 32.5625 25.6491 32.5625 16.8125C32.5625 7.97594 25.3991 0.8125 16.5625 0.8125C7.72594 0.8125 0.5625 7.97594 0.5625 16.8125C0.5625 25.6491 7.72594 32.8125 16.5625 32.8125Z" fill="#F0F0F0"/>
<path d="M3.87057 7.07129C2.61376 8.70648 1.66607 10.5912 1.11426 12.6386H9.43788L3.87057 7.07129Z" fill="#0052B4"/>
<path d="M32.0117 12.6385C31.4599 10.5912 30.5122 8.70648 29.2554 7.07129L23.6882 12.6385H32.0117Z" fill="#0052B4"/>
<path d="M1.11426 20.9863C1.66613 23.0337 2.61382 24.9184 3.87057 26.5535L9.4377 20.9863H1.11426Z" fill="#0052B4"/>
<path d="M26.3041 4.11966C24.6689 2.86284 22.7843 1.91516 20.7368 1.36328V9.68684L26.3041 4.11966Z" fill="#0052B4"/>
<path d="M6.82178 29.5046C8.45696 30.7614 10.3417 31.7091 12.389 32.261V23.9375L6.82178 29.5046Z" fill="#0052B4"/>
<path d="M12.389 1.36328C10.3416 1.91516 8.4569 2.86284 6.82178 4.11959L12.389 9.68678V1.36328Z" fill="#0052B4"/>
<path d="M20.7368 32.261C22.7842 31.7091 24.6689 30.7614 26.304 29.5047L20.7368 23.9375V32.261Z" fill="#0052B4"/>
<path d="M23.6882 20.9863L29.2554 26.5536C30.5122 24.9185 31.4599 23.0337 32.0117 20.9863H23.6882Z" fill="#0052B4"/>
<path d="M32.4271 14.7256H18.6496H18.6495V0.947938C17.9663 0.859 17.2698 0.8125 16.5625 0.8125C15.8551 0.8125 15.1587 0.859 14.4756 0.947938V14.7254V14.7255H0.697938C0.609 15.4087 0.5625 16.1052 0.5625 16.8125C0.5625 17.5199 0.609 18.2163 0.697938 18.8994H14.4754H14.4755V32.6771C15.1587 32.766 15.8551 32.8125 16.5625 32.8125C17.2698 32.8125 17.9663 32.7661 18.6494 32.6771V18.8996V18.8995H32.4271C32.516 18.2163 32.5625 17.5199 32.5625 16.8125C32.5625 16.1052 32.516 15.4087 32.4271 14.7256Z" fill="#D80027"/>
<path d="M20.7363 20.9864L27.8761 28.1261C28.2045 27.7979 28.5177 27.4547 28.8166 27.099L22.704 20.9863H20.7363V20.9864Z" fill="#D80027"/>
<path d="M12.3886 20.9863H12.3885L5.24878 28.126C5.57703 28.4544 5.92022 28.7676 6.27597 29.0665L12.3886 22.9538V20.9863Z" fill="#D80027"/>
<path d="M12.3886 12.639V12.6388L5.24885 5.49902C4.92047 5.82727 4.60722 6.17046 4.30835 6.52621L10.421 12.6389H12.3886V12.639Z" fill="#D80027"/>
<path d="M20.7363 12.6389L27.8761 5.49903C27.5479 5.17066 27.2047 4.85741 26.849 4.55859L20.7363 10.6713V12.6389Z" fill="#D80027"/>
</g>
<defs>
<clipPath id="clip0_1068_14868">
<rect width="32" height="32" fill="white" transform="translate(0.5625 0.8125)"/>
</clipPath>
</defs>
</svg>
