<svg width="33" height="33" viewBox="0 0 33 33" fill="none" xmlns="http://www.w3.org/2000/svg">
<g clip-path="url(#clip0_1068_14890)">
<path d="M16.5625 32.8125C25.3991 32.8125 32.5625 25.6491 32.5625 16.8125C32.5625 7.97594 25.3991 0.8125 16.5625 0.8125C7.72594 0.8125 0.5625 7.97594 0.5625 16.8125C0.5625 25.6491 7.72594 32.8125 16.5625 32.8125Z" fill="#F0F0F0"/>
<path d="M15.8674 16.8126H32.5631C32.5631 15.3685 32.3706 13.9695 32.0119 12.6387H15.8674V16.8126Z" fill="#D80027"/>
<path d="M15.8674 8.46495H30.2147C29.2352 6.8667 27.9829 5.45402 26.5228 4.29102H15.8674V8.46495Z" fill="#D80027"/>
<path d="M16.563 32.8122C20.3286 32.8122 23.7896 31.5107 26.5228 29.334H6.60327C9.3364 31.5107 12.7975 32.8122 16.563 32.8122Z" fill="#D80027"/>
<path d="M2.91145 25.1603H30.2147C31.001 23.8772 31.6108 22.4747 32.0119 20.9863H1.11426C1.51532 22.4747 2.12513 23.8772 2.91145 25.1603Z" fill="#D80027"/>
<path d="M7.974 3.31113H9.43206L8.07581 4.29644L8.59387 5.89075L7.23769 4.90544L5.8815 5.89075L6.329 4.51344C5.13487 5.50812 4.08825 6.6735 3.22575 7.972H3.69294L2.82962 8.59919C2.69512 8.82356 2.56612 9.0515 2.4425 9.28281L2.85475 10.5516L2.08563 9.99281C1.89444 10.3979 1.71956 10.8121 1.56238 11.2349L2.01656 12.6329H3.69294L2.33669 13.6182L2.85475 15.2125L1.49856 14.2272L0.686187 14.8174C0.604875 15.4711 0.5625 16.1368 0.5625 16.8125H16.5625C16.5625 7.976 16.5625 6.93425 16.5625 0.8125C13.4018 0.8125 10.4553 1.72938 7.974 3.31113ZM8.59387 15.2125L7.23769 14.2272L5.8815 15.2125L6.39956 13.6182L5.04331 12.6329H6.71969L7.23769 11.0386L7.75569 12.6329H9.43206L8.07581 13.6182L8.59387 15.2125ZM8.07581 8.95731L8.59387 10.5516L7.23769 9.56631L5.8815 10.5516L6.39956 8.95731L5.04331 7.972H6.71969L7.23769 6.37769L7.75569 7.972H9.43206L8.07581 8.95731ZM14.333 15.2125L12.9768 14.2272L11.6206 15.2125L12.1387 13.6182L10.7824 12.6329H12.4588L12.9768 11.0386L13.4948 12.6329H15.1712L13.8149 13.6182L14.333 15.2125ZM13.8149 8.95731L14.333 10.5516L12.9768 9.56631L11.6206 10.5516L12.1387 8.95731L10.7824 7.972H12.4588L12.9768 6.37769L13.4948 7.972H15.1712L13.8149 8.95731ZM13.8149 4.29644L14.333 5.89075L12.9768 4.90544L11.6206 5.89075L12.1387 4.29644L10.7824 3.31113H12.4588L12.9768 1.71681L13.4948 3.31113H15.1712L13.8149 4.29644Z" fill="#0052B4"/>
</g>
<defs>
<clipPath id="clip0_1068_14890">
<rect width="32" height="32" fill="white" transform="translate(0.5625 0.8125)"/>
</clipPath>
</defs>
</svg>
