<svg width="20" height="20" viewBox="0 0 20 20" fill="none" xmlns="http://www.w3.org/2000/svg">
<g clip-path="url(#clip0_21_21941)">
<path d="M17.321 15.607L12.5015 7.57187V3.125H13.1265C13.2922 3.125 13.4512 3.05915 13.5684 2.94194C13.6856 2.82473 13.7515 2.66576 13.7515 2.5C13.7515 2.33424 13.6856 2.17527 13.5684 2.05806C13.4512 1.94085 13.2922 1.875 13.1265 1.875H6.87648C6.71072 1.875 6.55175 1.94085 6.43454 2.05806C6.31733 2.17527 6.25148 2.33424 6.25148 2.5C6.25148 2.66576 6.31733 2.82473 6.43454 2.94194C6.55175 3.05915 6.71072 3.125 6.87648 3.125H7.50148V7.57187L2.68195 15.607C2.56828 15.7965 2.50688 16.0128 2.50401 16.2338C2.50114 16.4547 2.5569 16.6725 2.6656 16.8649C2.77431 17.0573 2.93207 17.2174 3.12283 17.329C3.31358 17.4406 3.5305 17.4996 3.75148 17.5H16.2515C16.4727 17.5 16.6899 17.4413 16.881 17.3299C17.072 17.2185 17.2301 17.0584 17.3391 16.8659C17.4481 16.6734 17.5041 16.4555 17.5013 16.2343C17.4985 16.0132 17.4371 15.7967 17.3234 15.607H17.321ZM10.2835 12.2547C9.04054 11.6258 7.85773 11.2922 6.7507 11.2539L8.66242 8.06641C8.72087 7.96952 8.75168 7.85847 8.75148 7.74531V3.125H11.2515V7.74531C11.2513 7.85847 11.2821 7.96952 11.3405 8.06641L14.3265 13.0469C13.3921 13.2297 12.0554 13.1516 10.2835 12.2547Z" fill="black"/>
</g>
<defs>
<clipPath id="clip0_21_21941">
<rect width="20" height="20" fill="white"/>
</clipPath>
</defs>
</svg>
