<svg width="327" height="300" viewBox="0 0 327 300" fill="none" xmlns="http://www.w3.org/2000/svg">
<g clip-path="url(#clip0_448_12514)">
<path d="M143.839 159.895L131.159 226.835M131.159 226.835L77.6586 298.515M131.159 226.835L48.0486 196.195L0.808594 151.565M131.159 226.835L203.309 228.415M49.0386 288.975L47.1386 194.945L173.829 1.56499L164.199 52.415M49.0386 288.975L77.6486 298.515H107.859L203.389 228.215L196.959 179.295M49.0386 288.975L25.8686 266.065L0.888594 151.355L173.609 1.48499L179.719 47.975" stroke="#1C1C1B" stroke-width="1.5" stroke-linecap="round" stroke-linejoin="round"/>
<path d="M287.49 105.305L326.25 115.985M278.64 67.015L323.37 46.455M252.27 40.965L267.21 8.21497" stroke="#1C1C1B" stroke-width="1.5" stroke-linecap="round" stroke-linejoin="round"/>
<path d="M228.417 170.045C206.027 184.485 175.047 181.525 152.387 164.335" stroke="#1C1C1B" stroke-width="1.5" stroke-linecap="round" stroke-linejoin="round"/>
<path d="M227.738 62.355C267.448 91.045 263.958 129.395 242.808 157.275C242.158 158.135 241.488 158.965 240.798 159.775" stroke="#1C1C1B" stroke-width="1.5" stroke-linecap="round" stroke-linejoin="round"/>
<path d="M242.71 142.465C225.54 172.965 186.89 183.765 156.39 166.595C125.89 149.425 115.09 110.775 132.26 80.275C149.43 49.775 188.08 38.975 218.58 56.145C249.08 73.315 259.88 111.965 242.71 142.465Z" stroke="#1C1C1B" stroke-width="1.5" stroke-linecap="round" stroke-linejoin="round"/>
<path d="M234.14 137.105C219.83 162.525 187.62 171.525 162.21 157.215C136.79 142.905 127.79 110.695 142.1 85.275C156.41 59.855 188.62 50.855 214.03 65.175C239.45 79.485 248.45 111.695 234.14 137.105Z" fill="#E7EEFE" stroke="#1C1C1B" stroke-width="1.5" stroke-linecap="round" stroke-linejoin="round"/>
<path d="M239.057 160.065L315.717 235.145C318.787 238.195 318.727 243.445 315.597 246.735C312.577 249.895 307.837 250.045 304.917 247.075L228.297 170.695C228.297 170.695 230.187 158.325 239.057 160.065Z" stroke="#1C1C1B" stroke-width="1.5" stroke-linecap="round" stroke-linejoin="round"/>
<path d="M239.057 160.065L315.717 235.145C318.787 238.195 318.727 243.445 315.597 246.735C312.577 249.895 307.837 250.045 304.917 247.075L228.297 170.695C228.297 170.695 230.187 158.325 239.057 160.065Z" stroke="#1C1C1B" stroke-width="1.5" stroke-linecap="round" stroke-linejoin="round"/>
<path d="M251.02 181.645L304.42 234.585" stroke="#1C1C1B" stroke-width="1.5" stroke-linecap="round" stroke-linejoin="round"/>
<path d="M173.83 62.355L167.68 159.895L173.83 62.355ZM197.67 59.265L222.17 151.565L197.67 59.265Z" fill="white"/>
<path d="M173.83 62.355L167.68 159.895M197.67 59.265L222.17 151.565" stroke="#1C1C1B" stroke-width="1.5" stroke-linecap="round" stroke-linejoin="round"/>
</g>
<defs>
<clipPath id="clip0_448_12514">
<rect width="326.94" height="298.53" fill="white" transform="translate(0.0585938 0.734985)"/>
</clipPath>
</defs>
</svg>
