<svg width="142" height="29" viewBox="0 0 142 29" fill="none" xmlns="http://www.w3.org/2000/svg">
<path d="M38.5489 4.33832C37.861 4.33832 37.2628 4.56763 36.7718 5.02125C36.2833 5.47238 36.0391 6.02321 36.0391 6.65878C36.0391 7.29435 36.2883 7.89253 36.7793 8.35363C37.2753 8.81723 37.8785 9.05401 38.5764 9.05401C39.2742 9.05401 39.855 8.82221 40.341 8.3636C40.8295 7.90998 41.0738 7.35167 41.0738 6.70863C41.0738 6.06558 40.8245 5.49232 40.3335 5.03122C39.8375 4.57012 39.2393 4.33832 38.5489 4.33832Z" fill="black"/>
<path d="M40.5665 9.85663H36.5312V23.6024H40.5665V9.85663Z" fill="black"/>
<path d="M51.6577 9.51013C50.9274 9.51013 50.2096 9.64223 49.5217 9.90145C48.9186 10.1233 48.2531 10.4996 47.5352 11.0305V9.85658H43.5V23.6024H47.5352V18.0517C47.5352 16.6759 47.5876 15.7761 47.6923 15.3748C47.8867 14.6122 48.2381 14.0065 48.7366 13.5728C49.2276 13.1541 49.8233 12.9397 50.5062 12.9397C51.0271 12.9397 51.4708 13.0668 51.8222 13.3136C52.1762 13.5703 52.4254 13.9417 52.5675 14.4252C52.717 14.9287 52.7943 15.9805 52.7943 17.5607V23.6024H56.7897V14.5748C56.7897 12.9871 56.3435 11.7733 55.4662 10.9557C54.4268 9.99616 53.1457 9.51013 51.6577 9.51013Z" fill="black"/>
<path d="M64.411 4.91907H60.3757V9.85658H58.5039V13.1017H60.3757V23.6023H64.411V13.1017H66.5769V9.85658H64.411V4.91907Z" fill="black"/>
<path d="M77.2651 16.5937C77.2651 17.8349 77.1928 18.6449 77.0482 19.0039C76.8588 19.4824 76.5647 19.8488 76.1759 20.0955C75.7846 20.3423 75.2986 20.4669 74.7353 20.4669C74.172 20.4669 73.6909 20.3423 73.3121 20.093C72.9233 19.8413 72.6516 19.4949 72.4771 19.0387C72.2977 18.5702 72.2054 17.7128 72.2054 16.4815V9.85413H68.1328V15.6042C68.1328 17.79 68.2749 19.2556 68.5665 20.0906C68.9777 21.2969 69.7006 22.249 70.7175 22.9244C71.7319 23.6024 73.0728 23.9463 74.7029 23.9463C76.2008 23.9463 77.4595 23.6522 78.444 23.074C79.426 22.4958 80.1812 21.6583 80.6847 20.5766C81.0984 19.6868 81.3003 18.0916 81.3003 15.7064V9.85662H77.2651V16.5937Z" fill="black"/>
<path d="M86.1974 4.33832C85.5095 4.33832 84.9113 4.56763 84.4203 5.02125C83.9318 5.47238 83.6875 6.02321 83.6875 6.65878C83.6875 7.29435 83.9367 7.89253 84.4278 8.35363C84.9237 8.81723 85.5269 9.05401 86.2248 9.05401C86.9227 9.05401 87.5034 8.82221 87.9894 8.3636C88.478 7.90998 88.7222 7.35167 88.7222 6.70863C88.7222 6.06558 88.473 5.49232 87.982 5.03122C87.486 4.57012 86.8878 4.33832 86.1974 4.33832Z" fill="black"/>
<path d="M88.2149 9.85663H84.1797V23.6024H88.2149V9.85663Z" fill="black"/>
<path d="M99.5654 9.51013C98.6706 9.51013 97.8157 9.66965 97.0281 9.98121C96.3726 10.2379 95.742 10.6143 95.1563 11.0978V9.85658H91.1484V28.5H95.1563V22.411C95.7819 22.9095 96.4149 23.2833 97.043 23.5201C97.7833 23.8067 98.5983 23.9488 99.4582 23.9488C101.387 23.9488 103.077 23.2534 104.478 21.8776C105.881 20.5092 106.592 18.7845 106.592 16.7532C106.592 14.7218 105.904 12.8974 104.548 11.5465C103.187 10.1956 101.512 9.51013 99.5654 9.51013ZM102.569 16.7158C102.569 17.8199 102.2 18.7421 101.475 19.4525C100.754 20.1603 99.8545 20.5167 98.8002 20.5167C97.7459 20.5167 96.7913 20.1628 96.0785 19.4699C95.3606 18.7745 94.9943 17.8423 94.9943 16.7058C94.9943 15.5692 95.3507 14.6894 96.0785 13.9965C96.7938 13.3136 97.711 12.9671 98.8002 12.9671C99.8894 12.9671 100.787 13.3211 101.495 14.014C102.205 14.7094 102.566 15.6216 102.566 16.7158H102.569Z" fill="black"/>
<path d="M119.966 11.0928C119.386 10.6118 118.765 10.2379 118.112 9.98121C117.324 9.66965 116.472 9.51013 115.577 9.51013C113.633 9.51013 111.958 10.1956 110.6 11.5465C109.244 12.8974 108.559 14.6495 108.559 16.7532C108.559 18.8568 109.269 20.5092 110.667 21.8776C112.07 23.2534 113.758 23.9488 115.684 23.9488C116.544 23.9488 117.354 23.8042 118.09 23.5201C118.713 23.2833 119.343 22.9095 119.966 22.411V23.6024H124.002V9.85658H119.966V11.0928ZM119.047 13.9915C119.772 14.6869 120.126 15.5742 120.126 16.7033C120.126 17.8324 119.762 18.772 119.047 19.4674C118.321 20.1703 117.437 20.5142 116.332 20.5142C115.228 20.5142 114.386 20.1578 113.668 19.45C112.948 18.7396 112.581 17.8174 112.581 16.7133C112.581 15.6091 112.94 14.7069 113.651 14.0115C114.353 13.3186 115.251 12.9646 116.32 12.9646C117.389 12.9646 118.334 13.3111 119.047 13.989V13.9915Z" fill="black"/>
<path d="M137.446 9.85663L133.408 17.9944L129.799 9.9638L129.749 9.85663H125.602L131.207 22.421L128.124 28.5H132.321L141.486 10.1059L141.61 9.85663H137.446Z" fill="black"/>
<path d="M5.30639 16.5363L0.615631 18.61C0.216842 17.3115 0 15.9306 0 14.5C0 9.57744 2.53979 5.24808 6.38063 2.75565C4.19477 6.54913 3.67634 11.6063 5.3039 16.5363H5.30639Z" fill="#0037C2"/>
<path d="M23.0297 8.70755L7.58405 15.5293C5.87923 10.5644 6.35777 5.44994 8.53367 1.6091C8.81033 1.48946 9.08948 1.37979 9.37611 1.28259C14.3834 0.539842 19.8942 3.41113 23.0272 8.70755H23.0297Z" fill="#7094F4"/>
<path d="M26.0501 7.37164L23.8318 8.35117C20.9306 3.41116 15.9657 0.559817 11.25 0.771674C12.1398 0.592219 13.0595 0.5 14.0016 0.5C19.1286 0.5 23.6175 3.25664 26.0501 7.37414V7.37164Z" fill="#A9BFF8"/>
<path d="M17.1212 28.1511C16.1192 28.3804 15.0724 28.5 14.0031 28.5C9.01825 28.5 4.64403 25.8954 2.16406 21.9723L6.57567 19.5273C8.95844 24.041 12.9015 27.1491 17.1212 28.1511Z" fill="#0037C2"/>
<path d="M22.0499 25.9527C21.4467 26.3814 20.8111 26.7578 20.1457 27.0793C15.6219 26.3116 11.32 23.1014 8.78516 18.3035L23.7348 10.0236C26.5064 15.7836 25.7013 22.2091 22.0474 25.9527H22.0499Z" fill="#7094F4"/>
<path d="M28.0037 14.4975C28.0037 18.5377 26.2914 22.1767 23.5547 24.7364C26.5805 20.9155 27.0989 14.9686 24.5043 9.60235L26.6204 8.42841C27.5052 10.2628 28.0012 12.3241 28.0012 14.5L28.0037 14.4975Z" fill="#A9BFF8"/>
</svg>
