<svg width="372" height="273" viewBox="0 0 372 273" fill="none" xmlns="http://www.w3.org/2000/svg">
<g clip-path="url(#clip0_448_12555)">
<path d="M327.402 0.75H57.5417C54.7637 0.75 52.5117 3.00201 52.5117 5.78V184.93C52.5117 187.708 54.7637 189.96 57.5417 189.96H327.402C330.18 189.96 332.432 187.708 332.432 184.93V5.78C332.432 3.00201 330.18 0.75 327.402 0.75Z" stroke="#1C1C1B" stroke-width="1.5" stroke-linecap="round" stroke-linejoin="round"/>
<path d="M364.999 271.54H6.00906C2.15906 269.54 -0.260943 265.4 1.61906 262.04L51.0491 192.52C51.9391 190.94 53.6191 189.96 55.4391 189.96H329.039C331.079 189.96 332.919 191.2 333.699 193.09L369.649 262.61C370.999 265.92 368.569 269.55 364.989 271.55L364.999 271.54Z" stroke="#1C1C1B" stroke-width="1.5" stroke-linecap="round" stroke-linejoin="round"/>
<path d="M0.75 263.98H153.51L162.42 261.75H211.95L221.41 263.98H370.27" stroke="#1C1C1B" stroke-width="1.5" stroke-linecap="round" stroke-linejoin="round"/>
<path d="M320.481 178.28H62.8114C60.8114 178.28 59.1914 176.65 59.1914 174.65L59.7214 15.4899C59.7214 13.4999 61.3414 11.8799 63.3414 11.8799H321.001C323.001 11.8799 324.621 13.5099 324.621 15.5099L324.091 174.67C324.091 176.66 322.471 178.28 320.471 178.28H320.481Z" fill="white" stroke="#1C1C1B" stroke-width="1.5" stroke-linecap="round" stroke-linejoin="round"/>
<path d="M192.928 7.9801C194 7.9801 194.868 7.11153 194.868 6.0401C194.868 4.96867 194 4.1001 192.928 4.1001C191.857 4.1001 190.988 4.96867 190.988 6.0401C190.988 7.11153 191.857 7.9801 192.928 7.9801Z" fill="white" stroke="#1C1C1B" stroke-width="1.5" stroke-linecap="round" stroke-linejoin="round"/>
<path d="M25.7891 241.72L53.3391 200.82H328.259L349.399 243.11" stroke="#1C1C1B" stroke-width="1.5" stroke-linecap="round" stroke-linejoin="round"/>
<path d="M84.2305 30.8H252.29" stroke="#1C1C1B" stroke-width="1.5" stroke-linecap="round" stroke-linejoin="round"/>
<path d="M84.2305 52.51H293.47" stroke="#1C1C1B" stroke-width="1.5" stroke-linecap="round" stroke-linejoin="round"/>
<path d="M84.2305 64.1899H137.65" stroke="#1C1C1B" stroke-width="1.5" stroke-linecap="round" stroke-linejoin="round"/>
<path d="M158.238 64.1899H243.388" stroke="#1C1C1B" stroke-width="1.5" stroke-linecap="round" stroke-linejoin="round"/>
<path d="M84.2305 75.8799H243.39" stroke="#1C1C1B" stroke-width="1.5" stroke-linecap="round" stroke-linejoin="round"/>
<path d="M84.2305 40.8201H172.71" stroke="#1C1C1B" stroke-width="1.5" stroke-linecap="round" stroke-linejoin="round"/>
<path d="M84.2305 87.5701H270.1" stroke="#1C1C1B" stroke-width="1.5" stroke-linecap="round" stroke-linejoin="round"/>
<path d="M84.2305 109.27H180.5" stroke="#1C1C1B" stroke-width="1.5" stroke-linecap="round" stroke-linejoin="round"/>
<path d="M84.2305 97.5801H182.17" stroke="#1C1C1B" stroke-width="1.5" stroke-linecap="round" stroke-linejoin="round"/>
<path d="M189.41 40.8201H289.02" stroke="#1C1C1B" stroke-width="1.5" stroke-linecap="round" stroke-linejoin="round"/>
<path d="M79.2186 24.6799L70.3086 30.7999L79.2186 36.3699" stroke="#1C1C1B" stroke-width="1.5" stroke-linecap="round" stroke-linejoin="round"/>
<path d="M202.211 115.39L211.671 109.83L202.761 104.26" stroke="#1C1C1B" stroke-width="1.5" stroke-linecap="round" stroke-linejoin="round"/>
<path d="M184.398 116.5L197.748 100.37" stroke="#1C1C1B" stroke-width="1.5" stroke-linecap="round" stroke-linejoin="round"/>
</g>
<defs>
<clipPath id="clip0_448_12555">
<rect width="371.02" height="272.29" fill="white"/>
</clipPath>
</defs>
</svg>
