<svg width="24" height="24" viewBox="0 0 24 24" fill="none" xmlns="http://www.w3.org/2000/svg">
<path d="M4.54832 13.7453L0.527682 15.5228C0.185864 14.4098 0 13.2262 0 11.9999C0 7.78062 2.17695 4.06976 5.46909 1.9334C3.5955 5.18494 3.15114 9.51962 4.54618 13.7453H4.54832Z" fill="#0037C2"/>
<path d="M19.7385 7.035L6.49949 12.8822C5.03822 8.62659 5.4484 4.24277 7.31345 0.95063C7.55059 0.848085 7.78986 0.754085 8.03554 0.670767C12.3275 0.0341309 17.051 2.49522 19.7364 7.035H19.7385Z" fill="#7094F4"/>
<path d="M22.3263 5.88996L20.425 6.72955C17.9383 2.49527 13.6826 0.0512719 9.64062 0.232863C10.4033 0.0790447 11.1916 0 11.9992 0C16.3937 0 20.2413 2.36282 22.3263 5.89209V5.88996Z" fill="#A9BFF8"/>
<path d="M14.6719 23.7008C13.8131 23.8974 12.9158 23.9999 11.9993 23.9999C7.72656 23.9999 3.97724 21.7674 1.85156 18.4048L5.63293 16.309C7.67529 20.178 11.055 22.842 14.6719 23.7008Z" fill="#0037C2"/>
<path d="M18.8971 21.8165C18.3801 22.184 17.8353 22.5066 17.2649 22.7822C13.3874 22.1242 9.70003 19.3725 7.52734 15.26L20.3413 8.16304C22.7169 13.1002 22.0268 18.6077 18.8949 21.8165H18.8971Z" fill="#7094F4"/>
<path d="M24.0009 11.9978C24.0009 15.4608 22.5332 18.5799 20.1875 20.774C22.781 17.4989 23.2254 12.4016 21.0015 7.80198L22.8152 6.79575C23.5736 8.36811 23.9988 10.1349 23.9988 11.9999L24.0009 11.9978Z" fill="#A9BFF8"/>
</svg>
