<svg width="480" height="200" viewBox="0 0 480 200" fill="none" xmlns="http://www.w3.org/2000/svg">
<rect width="480" height="200" fill="white"/>
<path d="M250 42C257.354 42 264.636 43.4485 271.43 46.2627C278.225 49.077 284.398 53.2019 289.598 58.402C294.798 63.6021 298.923 69.7755 301.737 76.5697C304.552 83.364 306 90.646 306 98L250 98L250 42Z" fill="url(#paint0_linear_21_14528)"/>
<path d="M278 14C285.354 14 292.636 15.4485 299.43 18.2627C306.225 21.077 312.398 25.2019 317.598 30.402C322.798 35.6021 326.923 41.7755 329.737 48.5697C332.552 55.364 334 62.646 334 70L278 70L278 14Z" fill="url(#paint1_linear_21_14528)"/>
<path d="M246 34C237.595 34 229.273 35.6554 221.508 38.8717C213.743 42.088 206.688 46.8022 200.745 52.7452C194.802 58.6881 190.088 65.7434 186.872 73.5083C183.655 81.2731 182 89.5954 182 98L246 98V34Z" fill="url(#paint2_linear_21_14528)"/>
<path d="M246 50C239.697 50 233.455 51.2416 227.631 53.6538C221.808 56.066 216.516 59.6017 212.059 64.0589C207.602 68.5161 204.066 73.8076 201.654 79.6312C199.242 85.4548 198 91.6966 198 98L246 98V74V50Z" fill="url(#paint3_linear_21_14528)"/>
<path d="M250 42C257.354 42 264.636 43.4485 271.43 46.2627C278.225 49.077 284.398 53.2019 289.598 58.402C294.798 63.6021 298.923 69.7755 301.737 76.5697C304.552 83.364 306 90.646 306 98L250 98L250 42Z" fill="url(#paint4_linear_21_14528)"/>
<path d="M170 34C170 25.1634 164.627 18 158 18C164.627 18 170 10.8366 170 2C170 10.8366 175.373 18 182 18C175.373 18 170 25.1634 170 34Z" fill="url(#paint5_linear_21_14528)"/>
<path d="M334 166C334 174.837 328.627 182 322 182C328.627 182 334 189.163 334 198C334 189.163 339.373 182 346 182C339.373 182 334 174.837 334 166Z" fill="url(#paint6_linear_21_14528)"/>
<path d="M106.5 154C106.5 159.523 109.858 164 114 164C109.858 164 106.5 168.477 106.5 174C106.5 168.477 103.142 164 99 164C103.142 164 106.5 159.523 106.5 154Z" fill="url(#paint7_linear_21_14528)"/>
<path d="M398 90C398 83.3726 402.029 78 407 78C402.029 78 398 72.6274 398 66C398 72.6274 393.971 78 389 78C393.971 78 398 83.3726 398 90Z" fill="url(#paint8_linear_21_14528)"/>
<path d="M123 102C123 95.3726 127.029 90 132 90C127.029 90 123 84.6274 123 78C123 84.6274 118.971 90 114 90C118.971 90 123 95.3726 123 102Z" fill="url(#paint9_linear_21_14528)"/>
<path d="M222 182C214.646 182 207.364 180.552 200.57 177.737C193.775 174.923 187.602 170.798 182.402 165.598C177.202 160.398 173.077 154.225 170.263 147.43C167.448 140.636 166 133.354 166 126L222 126L222 182Z" fill="url(#paint10_linear_21_14528)"/>
<path d="M250 166C258.405 166 266.727 164.345 274.492 161.128C282.257 157.912 289.312 153.198 295.255 147.255C301.198 141.312 305.912 134.257 309.128 126.492C312.345 118.727 314 110.405 314 102L250 102V166Z" fill="url(#paint11_linear_21_14528)"/>
<path d="M250 150C256.303 150 262.545 148.758 268.369 146.346C274.192 143.934 279.484 140.398 283.941 135.941C288.398 131.484 291.934 126.192 294.346 120.369C296.758 114.545 298 108.303 298 102L250 102V126V150Z" fill="url(#paint12_linear_21_14528)"/>
<path d="M246 158C238.646 158 231.364 156.552 224.57 153.737C217.775 150.923 211.602 146.798 206.402 141.598C201.202 136.398 197.077 130.225 194.263 123.43C191.448 116.636 190 109.354 190 102L246 102L246 158Z" fill="url(#paint13_linear_21_14528)"/>
<path d="M246 158C238.646 158 231.364 156.552 224.57 153.737C217.775 150.923 211.602 146.798 206.402 141.598C201.202 136.398 197.077 130.225 194.263 123.43C191.448 116.636 190 109.354 190 102L246 102L246 158Z" fill="url(#paint14_linear_21_14528)"/>
<defs>
<linearGradient id="paint0_linear_21_14528" x1="292" y1="59" x2="250" y2="98" gradientUnits="userSpaceOnUse">
<stop stop-color="#2461F2"/>
<stop offset="1" stop-color="#D4E1FF"/>
<stop offset="1" stop-color="#2461F2" stop-opacity="0"/>
</linearGradient>
<linearGradient id="paint1_linear_21_14528" x1="320" y1="31" x2="278" y2="70" gradientUnits="userSpaceOnUse">
<stop stop-color="#2461F2"/>
<stop offset="1" stop-color="#D4E1FF"/>
<stop offset="1" stop-color="#2461F2" stop-opacity="0"/>
</linearGradient>
<linearGradient id="paint2_linear_21_14528" x1="197" y1="53" x2="244" y2="99" gradientUnits="userSpaceOnUse">
<stop stop-color="#C9E2FF"/>
<stop offset="1" stop-color="#2461F2" stop-opacity="0"/>
</linearGradient>
<linearGradient id="paint3_linear_21_14528" x1="214" y1="62" x2="245" y2="99" gradientUnits="userSpaceOnUse">
<stop stop-color="#C9E2FF"/>
<stop offset="1" stop-color="#2461F2" stop-opacity="0"/>
</linearGradient>
<linearGradient id="paint4_linear_21_14528" x1="292" y1="59" x2="250" y2="98" gradientUnits="userSpaceOnUse">
<stop stop-color="#2461F2"/>
<stop offset="1" stop-color="#D4E1FF"/>
<stop offset="1" stop-color="#2461F2" stop-opacity="0"/>
</linearGradient>
<linearGradient id="paint5_linear_21_14528" x1="170" y1="4.49988" x2="170" y2="37.6249" gradientUnits="userSpaceOnUse">
<stop stop-color="white"/>
<stop offset="1" stop-color="#2461F2" stop-opacity="0.16"/>
</linearGradient>
<linearGradient id="paint6_linear_21_14528" x1="334" y1="195.5" x2="334" y2="162.375" gradientUnits="userSpaceOnUse">
<stop stop-color="white"/>
<stop offset="1" stop-color="#2461F2" stop-opacity="0.16"/>
</linearGradient>
<linearGradient id="paint7_linear_21_14528" x1="106.5" y1="172.438" x2="106.5" y2="151.734" gradientUnits="userSpaceOnUse">
<stop stop-color="white"/>
<stop offset="1" stop-color="#2461F2" stop-opacity="0.16"/>
</linearGradient>
<linearGradient id="paint8_linear_21_14528" x1="398" y1="67.8749" x2="398" y2="92.7187" gradientUnits="userSpaceOnUse">
<stop stop-color="white"/>
<stop offset="1" stop-color="#2461F2" stop-opacity="0.16"/>
</linearGradient>
<linearGradient id="paint9_linear_21_14528" x1="123" y1="79.8749" x2="123" y2="104.719" gradientUnits="userSpaceOnUse">
<stop stop-color="white"/>
<stop offset="1" stop-color="#2461F2" stop-opacity="0.16"/>
</linearGradient>
<linearGradient id="paint10_linear_21_14528" x1="180" y1="165" x2="222" y2="126" gradientUnits="userSpaceOnUse">
<stop stop-color="#2461F2"/>
<stop offset="1" stop-color="#D4E1FF"/>
<stop offset="1" stop-color="#2461F2" stop-opacity="0"/>
</linearGradient>
<linearGradient id="paint11_linear_21_14528" x1="299" y1="147" x2="252" y2="101" gradientUnits="userSpaceOnUse">
<stop stop-color="#C9E2FF"/>
<stop offset="1" stop-color="#2461F2" stop-opacity="0"/>
</linearGradient>
<linearGradient id="paint12_linear_21_14528" x1="282" y1="138" x2="251" y2="101" gradientUnits="userSpaceOnUse">
<stop stop-color="#C9E2FF"/>
<stop offset="1" stop-color="#2461F2" stop-opacity="0"/>
</linearGradient>
<linearGradient id="paint13_linear_21_14528" x1="204" y1="141" x2="246" y2="102" gradientUnits="userSpaceOnUse">
<stop stop-color="#2461F2"/>
<stop offset="1" stop-color="#D4E1FF"/>
<stop offset="1" stop-color="#2461F2" stop-opacity="0"/>
</linearGradient>
<linearGradient id="paint14_linear_21_14528" x1="204" y1="141" x2="246" y2="102" gradientUnits="userSpaceOnUse">
<stop stop-color="#2461F2"/>
<stop offset="1" stop-color="#D4E1FF"/>
<stop offset="1" stop-color="#2461F2" stop-opacity="0"/>
</linearGradient>
</defs>
</svg>
