<svg width="24" height="24" viewBox="0 0 24 24" fill="none" xmlns="http://www.w3.org/2000/svg">
<path d="M20.0866 11.9875L20.9473 10.9771L20.5731 10.7027L21.1718 10.1539L20.7103 9.80459L21.309 9.35552L20.9223 9.05615L21.546 6.01249L20.598 3.19336M20.598 3.19336L14.5107 5.45116H9.43378L3.34646 3.19336L2.39844 6.01249L3.03461 9.05615L2.63544 9.35552L3.24667 9.80459L2.78513 10.1539L3.38388 10.7027L3.00966 10.9771L3.87037 11.9875L2.5606 16.0291L3.77058 20.158L8.02422 18.9855L8.8475 19.6591L10.5315 20.8067H13.413L15.097 19.6591L15.9203 18.9855L20.1864 20.158L21.4088 16.0291L20.0866 11.9875" fill="#F5841F"/>
<path d="M20.5969 3.19336L13.125 8.6944L14.5096 5.45116L20.5969 3.19336Z" fill="#E27625"/>
<path d="M3.34375 3.19336L10.7533 8.7443L9.43107 5.45116L3.34375 3.19336Z" fill="#E27625"/>
<path d="M17.9177 15.9541L15.9219 18.9728L20.188 20.1454L21.4104 16.0165L17.9177 15.9541Z" fill="#E27625"/>
<path d="M2.5625 16.0165L3.77248 20.1454L8.02612 18.9728L6.04275 15.9541L2.5625 16.0165Z" fill="#E27625"/>
<path d="M7.80222 10.8396L6.61719 12.6234L10.8334 12.8105L10.6962 8.29492L7.80222 10.8396Z" fill="#E27625"/>
<path d="M16.1562 10.8397L13.2123 8.24512L13.125 12.8106L17.3412 12.6235L16.1562 10.8397Z" fill="#E27625"/>
<path d="M8.02344 18.9726L10.5806 17.7502L8.37271 16.0537L8.02344 18.9726Z" fill="#E27625"/>
<path d="M13.375 17.7502L15.9197 18.9726L15.5704 16.0537L13.375 17.7502Z" fill="#E27625"/>
<path d="M15.9197 18.9725L13.375 17.75L13.5871 19.3966L13.5621 20.0951L15.9197 18.9725Z" fill="#D7C1B3"/>
<path d="M8.02344 18.9725L10.3935 20.0951L10.381 19.3966L10.5806 17.75L8.02344 18.9725Z" fill="#D7C1B3"/>
<path d="M10.4362 14.9565L8.32812 14.3453L9.82501 13.6592L10.4362 14.9565Z" fill="#2F343B"/>
<path d="M13.5156 14.9565L14.1393 13.6592L15.6362 14.3453L13.5156 14.9565Z" fill="#2F343B"/>
<path d="M8.03024 18.9728L8.40446 15.9541L6.04688 16.0165L8.03024 18.9728Z" fill="#CC6228"/>
<path d="M15.5625 15.9541L15.9242 18.9728L17.9201 16.0165L15.5625 15.9541Z" fill="#CC6228"/>
<path d="M17.3412 12.624L13.125 12.8111L13.5117 14.9567L14.1354 13.6594L15.6323 14.3454L17.3412 12.624Z" fill="#CC6228"/>
<path d="M8.32613 14.3454L9.82301 13.6594L10.4342 14.9567L10.8334 12.8111L6.61719 12.624L8.32613 14.3454Z" fill="#CC6228"/>
<path d="M6.61719 12.624L8.37602 16.0544L8.32613 14.3454L6.61719 12.624Z" fill="#E27625"/>
<path d="M15.6327 14.3454L15.5703 16.0544L17.3416 12.624L15.6327 14.3454Z" fill="#E27625"/>
<path d="M10.8367 12.8105L10.4375 14.9561L10.9365 17.5008L11.0487 14.1577L10.8367 12.8105Z" fill="#E27625"/>
<path d="M13.1261 12.8105L12.9141 14.1453L13.0139 17.5008L13.5128 14.9561L13.1261 12.8105Z" fill="#E27625"/>
<path d="M13.5146 14.9569L13.0156 17.5016L13.3774 17.7511L15.5728 16.0546L15.6352 14.3457L13.5146 14.9569Z" fill="#F5841F"/>
<path d="M8.32812 14.3457L8.37802 16.0546L10.5859 17.7511L10.9352 17.5016L10.4362 14.9569L8.32812 14.3457Z" fill="#F5841F"/>
<path d="M13.5619 20.0953L13.5868 19.3968L13.3873 19.2346H10.5557L10.381 19.3968L10.3935 20.0953L8.02344 18.9727L8.84672 19.6463L10.5307 20.8063H13.4122L15.0962 19.6463L15.9195 18.9727L13.5619 20.0953Z" fill="#C0AD9E"/>
<path d="M13.3766 17.7505L13.0148 17.501H10.9317L10.5824 17.7505L10.3828 19.397L10.5574 19.2349H13.389L13.5886 19.397L13.3766 17.7505Z" fill="#2F343B"/>
<path d="M20.9218 9.05615L21.5455 6.01249L20.5975 3.19336L13.375 8.50729L16.1567 10.8399L20.086 11.9875L20.9467 10.9771L20.5725 10.7027L21.1713 10.1663L20.7097 9.80459L21.3085 9.35552L20.9218 9.05615Z" fill="#763E1A"/>
<path d="M2.39844 6.01249L3.03461 9.05615L2.63544 9.35552L3.2342 9.81706L2.77266 10.1663L3.37141 10.7027L2.99719 10.9771L3.87037 11.9875L7.79969 10.8399L10.5814 8.50729L3.34646 3.19336L2.39844 6.01249Z" fill="#763E1A"/>
<path d="M20.0859 11.9875L16.1566 10.8398L17.3416 12.6236L15.5703 16.054L17.9154 16.0166H21.4082L20.0859 11.9875Z" fill="#F5841F"/>
<path d="M7.80159 10.8398L3.87227 11.9875L2.5625 16.0166H6.04275L8.37539 16.054L6.61655 12.6236L7.80159 10.8398Z" fill="#F5841F"/>
<path d="M13.1298 12.8108L13.3793 8.5073L14.5144 5.45117H9.4375L10.5851 8.5073L10.8346 12.8108L10.9344 14.158V17.5011H13.0175L13.03 14.158L13.1298 12.8108Z" fill="#F5841F"/>
</svg>
