<svg width="24" height="24" viewBox="0 0 24 24" fill="none" xmlns="http://www.w3.org/2000/svg">
<g clip-path="url(#clip0_21_14252)">
<mask id="mask0_21_14252" style="mask-type:luminance" maskUnits="userSpaceOnUse" x="0" y="0" width="24" height="24">
<path d="M0 0H24V24H0V0Z" fill="white"/>
</mask>
<g mask="url(#mask0_21_14252)">
<path d="M12.0013 23.9703C18.6121 23.9703 23.9713 18.6111 23.9713 12.0003C23.9713 5.38943 18.6121 0.0302734 12.0013 0.0302734C5.3904 0.0302734 0.03125 5.38943 0.03125 12.0003C0.03125 18.6111 5.3904 23.9703 12.0013 23.9703Z" fill="#3396FF" stroke="#66B1FF" stroke-width="0.06"/>
<path d="M7.34815 8.93835C9.91561 6.43461 14.0784 6.43461 16.6459 8.93835L16.9549 9.23967C17.0833 9.36483 17.0833 9.56781 16.9549 9.69297L15.8979 10.7238C15.8337 10.7864 15.7296 10.7864 15.6654 10.7238L15.2402 10.3091C13.449 8.56245 10.545 8.56245 8.75383 10.3091L8.29843 10.7532C8.23423 10.8158 8.13019 10.8158 8.06599 10.7532L7.00897 9.72237C6.88057 9.59721 6.88057 9.39423 7.00897 9.26907L7.34815 8.93835ZM18.832 11.0701L19.7727 11.9875C19.9011 12.1127 19.9011 12.3156 19.7727 12.4408L15.5307 16.5774C15.4024 16.7027 15.1942 16.7027 15.0658 16.5774L12.0552 13.6416C12.0231 13.6103 11.971 13.6103 11.9389 13.6416L8.92825 16.5774C8.79991 16.7027 8.59177 16.7027 8.46337 16.5774L4.22128 12.4407C4.09291 12.3156 4.09291 12.1126 4.22128 11.9874L5.16205 11.07C5.29043 10.9449 5.49856 10.9449 5.62694 11.07L8.63767 14.006C8.66977 14.0373 8.72179 14.0373 8.75389 14.006L11.7645 11.07C11.8929 10.9448 12.101 10.9448 12.2294 11.07L15.2401 14.006C15.2722 14.0373 15.3243 14.0373 15.3564 14.006L18.3671 11.0701C18.4954 10.9449 18.7036 10.9449 18.832 11.0701Z" fill="white"/>
</g>
</g>
<defs>
<clipPath id="clip0_21_14252">
<rect width="24" height="24" fill="white"/>
</clipPath>
</defs>
</svg>
